<?xml version="1.0" encoding="UTF-8"?>
<svg id="Layer_1" xmlns="http://www.w3.org/2000/svg" xmlns:xlink="http://www.w3.org/1999/xlink" version="1.1" viewBox="0 0 841.89 595.28">
  <!-- Generator: Adobe Illustrator 29.1.0, SVG Export Plug-In . SVG Version: 2.1.0 Build 142)  -->
  <defs>
    <style>
      .st0 {
        fill: url(#linear-gradient);
      }
    </style>
    <linearGradient id="linear-gradient" x1="734.55" y1="363.48" x2="791.04" y2="330.87" gradientUnits="userSpaceOnUse">
      <stop offset="0" stop-color="#ffac00"/>
      <stop offset="1" stop-color="#f90020"/>
    </linearGradient>
  </defs>
  <path class="st0" d="M738.86,370.94v-47.54h47.86v47.54h-47.86Z"/>
  <g>
    <path d="M205.92,355.87c-16.38,16.94-37.48,25.4-63.27,25.4s-46.88-8.46-63.27-25.4c-16.39-16.94-24.58-38.07-24.58-63.44s8.19-46.5,24.58-63.44c16.39-16.91,37.48-25.4,63.27-25.4s46.89,8.48,63.27,25.4c16.39,16.94,24.6,38.1,24.6,63.44s-8.2,46.5-24.6,63.44ZM142.65,347.17c13.33,0,23.77-4.96,31.31-14.91,7.55-9.92,11.31-23.21,11.31-39.83s-3.76-29.93-11.31-39.99c-7.54-10.06-17.98-15.07-31.31-15.07s-24.04,4.96-31.47,14.91c-7.43,9.95-11.15,23.34-11.15,40.15s3.72,29.91,11.15,39.83c7.43,9.95,17.92,14.91,31.47,14.91Z"/>
    <path d="M240.38,429.28v-223.24h42.95v35.43h.99c3.14-18.44,9.13-40.03,49.52-40.03,22.06,0,39.78,8.2,53.09,24.6,13.34,16.38,20.01,37.8,20.01,64.24s-6.67,48.69-20.01,64.75c-13.31,16.06-30.92,24.09-52.77,24.09s-38.02-7.98-48.53-23.93h-.64v74.09h-44.61ZM324.66,342.1c11.37,0,20.36-4.48,27.03-13.45,6.67-8.96,10-21.32,10-37.06,0-16.81-3.17-30.04-9.5-39.65-6.35-9.63-16.06-14.43-29.19-14.43s-23.16,4.96-29.51,14.91c-6.32,9.95-9.5,23-9.5,39.17s3.49,27.83,10.48,36.9c6.99,9.07,17.05,13.61,30.17,13.61Z"/>
    <path d="M568.4,374.22l-33.47-14.75-9.49-4.92h-.99c-6.11,8.3-12.83,14.41-20.17,18.36-7.31,3.92-16.65,5.9-28.01,5.9-18.36,0-32.68-5.47-42.95-16.38-10.27-10.94-15.39-25.69-15.39-44.26v-112.12h44.23v104.57c0,20.33,9.28,30.49,27.88,30.49,10.27,0,18.46-3.49,24.57-10.48,6.14-6.99,9.2-16.17,9.2-27.53v-97.05h44.58v168.17Z"/>
    <g>
      <path d="M579.21,319.79c1.33,18.36,8.75,32.84,22.3,43.43,13.55,10.62,32.34,15.9,56.4,15.9,21.18,0,38.28-4.86,51.3-14.57,12.99-9.74,19.5-22.92,19.5-39.51,0-7.66-1.25-14.38-3.79-20.17-2.51-5.79-5.44-10.38-8.83-13.77-3.39-3.39-8.03-6.46-13.95-9.18-5.9-2.72-11.07-4.7-15.55-5.9-4.48-1.2-10.22-2.56-17.21-4.11-2.43-.43-5.68-1.04-9.84-1.79-4.16-.77-7.44-1.44-9.84-1.97-2.4-.56-5.23-1.2-8.51-1.97-3.28-.77-5.79-1.52-7.55-2.29-1.73-.77-3.55-1.73-5.39-2.96-1.87-1.17-3.17-2.61-3.95-4.24-.77-1.65-1.15-3.44-1.15-5.42,0-5.9,2.56-10.49,7.71-13.77,5.12-3.28,12.17-4.91,21.13-4.91,19.9,0,30.71,8.19,32.47,24.57h40.31c-1.73-17.26-8.8-30.87-21.13-40.79-12.35-9.96-29.35-14.94-50.98-14.94-20.12,0-36.55,4.6-49.33,13.77-12.81,9.18-19.18,22.52-19.18,39.99,0,8.75,1.57,16.25,4.75,22.46,3.17,6.24,7.92,11.15,14.25,14.75,6.35,3.6,12.41,6.35,18.2,8.19,5.79,1.87,13.29,3.68,22.46,5.42,1.76.45,4.86,1.04,9.34,1.81,4.48.75,7.66,1.36,9.52,1.79,1.84.45,4.54,1.09,8.03,1.97,3.49.88,5.95,1.76,7.36,2.61,1.41.88,3.07,2.03,4.94,3.44,1.84,1.44,3.15,3.01,3.92,4.75.77,1.76,1.15,3.74,1.15,5.92,0,5.9-2.67,10.59-8.03,14.09-5.36,3.49-12.94,5.26-22.78,5.26-21.64,0-33.88-9.28-36.71-27.88"/>
      <polyline points="620.54 319.79 578.96 309.95 579.21 319.79"/>
    </g>
  </g>
</svg>